<?xml version="1.0" encoding="UTF-8"?>
<svg id="Calque_2" xmlns="http://www.w3.org/2000/svg" viewBox="0 0 813.13 295.14">
  <g id="Calque_15">
    <path d="M127.2,39c22-17,111.4-4,126.7-8s79.3-19,94.3-21S405.1,0,424.2,0c55,0,135.58,13.8,157.53,15.95,41.47,4.05,116.4,7.47,134.47,10.05,42,6,105.33,39,96,46-12,9-70,20-69,33,.85,11.01,34.35,19.97,35,29,1,14-50.38,22.65-49,33,2,15,55,24,57,39,1.48,11.08-60,22-60,32,0,13,27.55,24.95,16,31-21,11-54.97,16.46-117,20-35,2-99.01-13.76-150-15-82-2-178.04,17.94-250,21-47,2-26.67-17.41-38-31-15-18-165-35-162-48,3.93-17.02,33-17,37-27S-4.25,158.8.2,149c5-11,57-21,61-33,3.3-9.9-37.25-26.11-30-33,20-19,52.91-10.71,96-44Z"/>
  </g>
</svg>